<svg width="32" height="31" viewBox="0 0 32 31" fill="none" xmlns="http://www.w3.org/2000/svg">
<circle cx="16.0009" cy="15.4667" r="15.4667" fill="#1DA1F2"/>
<path fill-rule="evenodd" clip-rule="evenodd" d="M24.2748 10.142C23.6664 10.4123 23.0116 10.5944 22.3248 10.6766C23.0259 10.2562 23.5643 9.59095 23.8175 8.79825C23.1622 9.18771 22.4346 9.4696 21.6617 9.6224C21.0422 8.96264 20.1591 8.55002 19.1832 8.55002C17.3082 8.55002 15.7879 10.0703 15.7879 11.9453C15.7879 12.2112 15.8183 12.4705 15.8762 12.7193C13.054 12.5781 10.5523 11.226 8.87757 9.17171C8.58521 9.67315 8.41806 10.2562 8.41806 10.8785C8.41806 12.0562 9.01659 13.0955 9.92844 13.7045C9.37129 13.6869 8.84834 13.534 8.38993 13.2797V13.3222C8.38993 14.9677 9.56105 16.3397 11.1134 16.6524C10.8287 16.7297 10.5286 16.7716 10.2192 16.7716C10.0002 16.7716 9.78722 16.7501 9.57981 16.7104C10.0117 18.0591 11.2662 19.041 12.7517 19.0686C11.59 19.9788 10.1259 20.5222 8.53501 20.5222C8.26029 20.5222 7.98999 20.5062 7.72466 20.4742C9.22731 21.4373 11.0119 22 12.9293 22C19.1744 22 22.5896 16.8262 22.5896 12.3398C22.5896 12.1925 22.5868 12.0457 22.5797 11.9007C23.2438 11.4207 23.8197 10.8228 24.2748 10.142Z" fill="white"/>
</svg>
